<?xml version="1.0" standalone="no"?><svg xmlns="http://www.w3.org/2000/svg" viewBox="0 0 1440 320"><path fill="#00cba9" fill-opacity="0.7" d="M0,192L15,186.7C30,181,60,171,90,154.7C120,139,150,117,180,112C210,107,240,117,270,106.7C300,96,330,64,360,53.3C390,43,420,53,450,80C480,107,510,149,540,144C570,139,600,85,630,101.3C660,117,690,203,720,218.7C750,235,780,181,810,170.7C840,160,870,192,900,224C930,256,960,288,990,256C1020,224,1050,128,1080,74.7C1110,21,1140,11,1170,53.3C1200,96,1230,192,1260,224C1290,256,1320,224,1350,208C1380,192,1410,192,1425,192L1440,192L1440,320L1425,320C1410,320,1380,320,1350,320C1320,320,1290,320,1260,320C1230,320,1200,320,1170,320C1140,320,1110,320,1080,320C1050,320,1020,320,990,320C960,320,930,320,900,320C870,320,840,320,810,320C780,320,750,320,720,320C690,320,660,320,630,320C600,320,570,320,540,320C510,320,480,320,450,320C420,320,390,320,360,320C330,320,300,320,270,320C240,320,210,320,180,320C150,320,120,320,90,320C60,320,30,320,15,320L0,320Z"></path></svg>